<svg width="32" height="28" viewBox="0 0 32 28" fill="none" xmlns="http://www.w3.org/2000/svg">
<path d="M14.5835 21.0837L17.4168 23.917C17.6959 24.1961 18.0272 24.4174 18.3918 24.5684C18.7564 24.7195 19.1472 24.7972 19.5418 24.7972C19.9365 24.7972 20.3273 24.7195 20.6919 24.5684C21.0565 24.4174 21.3878 24.1961 21.6668 23.917C21.9459 23.6379 22.1673 23.3066 22.3183 22.942C22.4693 22.5774 22.547 22.1866 22.547 21.792C22.547 21.3973 22.4693 21.0066 22.3183 20.642C22.1673 20.2773 21.9459 19.9461 21.6668 19.667" stroke="#303656" stroke-width="2" stroke-linecap="round" stroke-linejoin="round"/>
<path d="M18.8332 16.8331L22.3748 20.3747C22.9384 20.9383 23.7028 21.2549 24.4998 21.2549C25.2969 21.2549 26.0612 20.9383 26.6248 20.3747C27.1884 19.8112 27.505 19.0468 27.505 18.2497C27.505 17.4527 27.1884 16.6883 26.6248 16.1247L21.1282 10.6281C20.3313 9.83218 19.2511 9.38514 18.1248 9.38514C16.9986 9.38514 15.9184 9.83218 15.1215 10.6281L13.8748 11.8747C13.3112 12.4383 12.5469 12.7549 11.7498 12.7549C10.9528 12.7549 10.1884 12.4383 9.62483 11.8747C9.06125 11.3112 8.74463 10.5468 8.74463 9.74974C8.74463 8.95271 9.06125 8.18832 9.62483 7.62474L13.6057 3.6439C14.898 2.35494 16.5834 1.53385 18.3949 1.31061C20.2065 1.08738 22.0407 1.47475 23.6073 2.4114L24.2732 2.80807C24.8764 3.17213 25.5936 3.2984 26.2848 3.16224L28.7498 2.6664" stroke="#303656" stroke-width="2" stroke-linecap="round" stroke-linejoin="round"/>
<path d="M28.7502 1.25L30.1668 16.8333H27.3335" stroke="#303656" stroke-width="2" stroke-linecap="round" stroke-linejoin="round"/>
<path d="M3.25016 1.25L1.8335 16.8333L11.0418 26.0417C11.6054 26.6053 12.3698 26.9219 13.1668 26.9219C13.9639 26.9219 14.7282 26.6053 15.2918 26.0417C15.8554 25.4781 16.172 24.7137 16.172 23.9167C16.172 23.1196 15.8554 22.3553 15.2918 21.7917" stroke="#303656" stroke-width="2" stroke-linecap="round" stroke-linejoin="round"/>
<path d="M3.25 2.66699H14.5833" stroke="#303656" stroke-width="2" stroke-linecap="round" stroke-linejoin="round"/>
</svg>
