<svg width="79" height="79" viewBox="0 0 79 79" fill="none" xmlns="http://www.w3.org/2000/svg">
<path d="M56.9631 18.0549C61.6811 18.0549 65.5204 14.2049 65.5204 9.47319C65.5236 4.73849 61.6846 0.888184 56.9631 0.888184C52.2416 0.888184 48.4058 4.73816 48.4058 9.46987C48.4058 14.2046 52.2448 18.0549 56.9631 18.0549ZM56.9631 3.39698C60.3045 3.39698 63.0222 6.12248 63.0222 9.47336C63.0222 12.8243 60.3044 15.5497 56.9631 15.5497C53.6217 15.5497 50.904 12.8242 50.904 9.47336C50.904 6.11916 53.6249 3.39698 56.9631 3.39698Z" fill="#C8ACA8"/>
<path d="M74.4653 71.0218H69.7731L66.018 35.6721L71.3533 43.2328C72.4843 44.8369 74.6074 45.3133 76.3104 44.3476H76.3169C76.3395 44.3347 76.3621 44.3249 76.3848 44.312C78.1912 43.262 78.8149 40.9351 77.7711 39.1203L67.4492 21.1862C66.7609 19.9936 65.5362 19.2871 64.166 19.2871H49.7664C48.393 19.2871 47.1683 20.0001 46.4865 21.1895L36.1646 39.1169C35.6605 39.9919 35.5247 41.016 35.7865 42.0012C36.0483 42.9864 36.6784 43.8031 37.5574 44.3151L37.5832 44.3281C39.2895 45.3165 41.4352 44.8466 42.5727 43.2327L47.9079 35.6721L44.1528 71.0218H41.3543V47.3873C41.3543 46.697 40.7953 46.1331 40.1037 46.1331H31.1915C30.5032 46.1331 29.9409 46.6938 29.9409 47.3873V71.0184H28.0279V54.4424C28.0279 53.7522 27.4688 53.1883 26.7773 53.1883H17.8651C17.1768 53.1883 16.6145 53.7489 16.6145 54.4424V71.0218H14.695V63.3347C14.695 62.6445 14.1359 62.0806 13.4444 62.0806H4.53217C3.84386 62.0806 3.28158 62.6412 3.28158 63.3347V71.2324C1.79506 71.7509 0.722168 73.1736 0.722168 74.8426V77.4126C0.722168 78.1028 1.28122 78.6667 1.97276 78.6667H77.0254C77.7137 78.6667 78.276 78.1061 78.276 77.4126V74.8426C78.2792 72.7361 76.5658 71.0218 74.4653 71.0218ZM50.9013 31.1539C50.9594 30.5868 50.6298 30.0521 50.0998 29.8479C49.5699 29.647 48.9688 29.8285 48.636 30.2952L40.5313 41.7806C40.1435 42.3315 39.4131 42.4903 38.825 42.15L38.7992 42.137C38.5019 41.9653 38.2886 41.6833 38.1981 41.3495C38.1076 41.0157 38.1529 40.669 38.3274 40.3708L48.6517 22.4367C48.8941 22.0154 49.2786 21.7886 49.7666 21.7886H64.1662C64.6541 21.7886 65.0419 22.0154 65.2843 22.4367L75.6062 40.3642C75.9552 40.9734 75.7548 41.7545 75.1602 42.1207C75.1408 42.1336 75.1182 42.1434 75.0956 42.1531C74.5139 42.4901 73.7836 42.3313 73.3958 41.7804L65.2911 30.295C64.9647 29.8283 64.3604 29.6468 63.8272 29.8478C63.2973 30.0487 62.9676 30.5867 63.0258 31.1538L67.2591 71.0216H62.3731L58.1979 47.7729C58.0913 47.1766 57.571 46.7424 56.9699 46.7424C56.3656 46.7424 55.8453 47.1766 55.7419 47.7729L51.5668 71.0216H46.6742L50.9013 31.1539ZM59.8333 71.0218H54.1006L56.9669 55.0647L59.8333 71.0218ZM32.4431 48.6409H38.8545V71.0218H32.4431V48.6409ZM19.1166 55.696H25.528V71.0217H19.1166V55.696ZM5.78345 64.5888H12.1948V71.0184H5.78345V64.5888ZM75.7782 76.1579H3.22387V74.8422C3.22387 74.1163 3.81201 73.5265 4.52939 73.5265H74.4629C75.1868 73.5265 75.7749 74.1163 75.7749 74.8422L75.7782 76.1579Z" fill="#C8ACA8"/>
<path d="M1.97545 55.5573C2.29538 55.5573 2.6153 55.4341 2.86088 55.1879L34.4007 23.5582V31.0832C34.4007 31.7735 34.9597 32.3374 35.6512 32.3374C36.3396 32.3374 36.9018 31.7767 36.9018 31.0832V20.5311V20.5182C36.9018 20.4793 36.9018 20.4469 36.8954 20.408C36.8954 20.3886 36.8889 20.3691 36.8889 20.3497C36.8857 20.3302 36.8824 20.3108 36.8792 20.2913C36.8727 20.2687 36.8663 20.246 36.8631 20.2265C36.8566 20.2071 36.8566 20.1909 36.8501 20.1747C36.8437 20.1552 36.8372 20.1325 36.8275 20.1099C36.821 20.0904 36.8146 20.0742 36.8081 20.058C36.8017 20.0386 36.7887 20.0191 36.7823 19.9997C36.7758 19.9802 36.7661 19.964 36.7564 19.9478C36.7467 19.9284 36.7338 19.9089 36.7241 19.8895C36.7144 19.8733 36.7047 19.8571 36.695 19.8409C36.6821 19.8214 36.6627 19.7987 36.6498 19.7793C36.6401 19.7663 36.6304 19.7534 36.6239 19.7404C36.5722 19.6756 36.514 19.6173 36.4462 19.5622C36.4333 19.5525 36.4203 19.5427 36.4106 19.5362C36.3913 19.52 36.3686 19.5038 36.346 19.4909C36.3331 19.4812 36.3137 19.4714 36.3008 19.4617C36.2814 19.4487 36.262 19.4358 36.2426 19.4293C36.2264 19.4228 36.2103 19.4131 36.1941 19.4034C36.1747 19.3937 36.1554 19.3839 36.1295 19.3742C36.1166 19.3677 36.0972 19.3612 36.0843 19.3548C36.0616 19.3483 36.039 19.3353 36.0132 19.3288C36.0002 19.3224 35.9841 19.3224 35.9679 19.3159C35.9421 19.3094 35.9194 19.3029 35.8936 19.2964C35.8774 19.2932 35.8613 19.29 35.8484 19.29C35.8225 19.2867 35.7999 19.2835 35.774 19.277C35.7514 19.277 35.7288 19.277 35.7094 19.2737C35.69 19.2737 35.6706 19.2705 35.6545 19.2705H25.1324C24.4441 19.2705 23.8818 19.8312 23.8818 20.5247C23.8818 21.2149 24.4408 21.7788 25.1324 21.7788H32.636L1.0896 53.4184C0.601643 53.9077 0.601643 54.7018 1.0896 55.1911C1.3352 55.4374 1.65231 55.5573 1.97545 55.5573Z" fill="#C8ACA8"/>
</svg>
