<svg version="1.2" xmlns="http://www.w3.org/2000/svg" viewBox="0 0 72 72" width="72" height="72">
	<title>noun-happy-user-918665</title>
	<style>
		.s0 { fill: #303656 } 
	</style>
	<path class="s0" d="m36 0c-19.9 0-36 16.1-36 36 0 19.9 16.1 36 36 36 19.9 0 36-16.1 36-36 0-19.9-16.1-36-36-36zm0 4c17.7 0 32 14.3 32 32 0 10-4.5 18.8-11.6 24.7-1.6-7.9-5.4-14.6-10.2-18.8 2.9-2.7 4.8-6.6 4.8-10.9 0-8.3-6.7-15-15-15-8.3 0-15 6.7-15 15 0 4.3 1.9 8.2 4.8 10.9-4.8 4.2-8.6 10.9-10.2 18.8-7.1-5.9-11.6-14.7-11.6-24.7 0-17.7 14.3-32 32-32zm0 16c6.1 0 11 4.9 11 11 0 6.1-4.9 11-11 11-6.1 0-11-4.9-11-11 0-6.1 4.9-11 11-11zm-5 6c-1.1 0-2 0.9-2 2 0 1.1 0.9 2 2 2 1.1 0 2-0.9 2-2 0-1.1-0.9-2-2-2zm10 0c-1.1 0-2 0.9-2 2 0 1.1 0.9 2 2 2 1.1 0 2-0.9 2-2 0-1.1-0.9-2-2-2zm-11.2 6.3q-0.6 0-1 0.3-0.5 0.4-0.7 0.9-0.3 0.5-0.2 1.1 0.2 0.6 0.5 1c1.9 2.1 4.6 3.4 7.6 3.4 3 0 5.7-1.3 7.6-3.4 0.3-0.4 0.5-0.9 0.5-1.5-0.1-0.5-0.3-1-0.7-1.3-0.4-0.4-0.9-0.6-1.5-0.5-0.5 0-1 0.2-1.3 0.6-1.1 1.3-2.8 2.1-4.6 2.1-1.8 0-3.5-0.8-4.6-2.1q-0.1-0.1-0.3-0.3-0.2-0.1-0.4-0.2-0.2-0.1-0.4-0.1-0.3-0.1-0.5 0zm-0.6 12c2 1.1 4.3 1.7 6.8 1.7 2.5 0 4.8-0.6 6.8-1.7 4.6 3.6 8.7 10.5 9.9 19-4.8 3-10.6 4.7-16.7 4.7-6.1 0-11.9-1.7-16.8-4.7 1.3-8.5 5.4-15.4 10-19z"/>
</svg>