<svg width="28" height="28" viewBox="0 0 28 28" fill="none" xmlns="http://www.w3.org/2000/svg">
<path d="M26.5 24V12.75H1.5V24C1.5 24.663 1.76339 25.2989 2.23223 25.7678C2.70107 26.2366 3.33696 26.5 4 26.5H24C24.663 26.5 25.2989 26.2366 25.7678 25.7678C26.2366 25.2989 26.5 24.663 26.5 24Z" stroke="#303656" stroke-width="2" stroke-linecap="round" stroke-linejoin="round"/>
<path d="M21.5 12.75V4H6.5V12.75" stroke="#303656" stroke-width="2" stroke-linecap="round" stroke-linejoin="round"/>
<path d="M17.75 26.5V21.5C17.75 20.5054 17.3549 19.5516 16.6517 18.8483C15.9484 18.1451 14.9946 17.75 14 17.75C13.0054 17.75 12.0516 18.1451 11.3483 18.8483C10.6451 19.5516 10.25 20.5054 10.25 21.5V26.5" stroke="#303656" stroke-width="2" stroke-linecap="round" stroke-linejoin="round"/>
<path d="M26.5 12.75V10.25" stroke="#303656" stroke-width="2" stroke-linecap="round" stroke-linejoin="round"/>
<path d="M1.5 12.75V10.25" stroke="#303656" stroke-width="2" stroke-linecap="round" stroke-linejoin="round"/>
<path d="M6.5 4V1.5" stroke="#303656" stroke-width="2" stroke-linecap="round" stroke-linejoin="round"/>
<path d="M21.5 4V1.5" stroke="#303656" stroke-width="2" stroke-linecap="round" stroke-linejoin="round"/>
<path d="M11.5 4V1.5" stroke="#303656" stroke-width="2" stroke-linecap="round" stroke-linejoin="round"/>
<path d="M16.5 4V1.5" stroke="#303656" stroke-width="2" stroke-linecap="round" stroke-linejoin="round"/>
</svg>
