<svg width="9" height="9" viewBox="0 0 9 9" fill="none" xmlns="http://www.w3.org/2000/svg">
<path d="M2.01455 9H0.148661V2.99116H2.01455V9ZM1.0806 2.1715C0.483951 2.1715 0 1.67729 0 1.08063C4.27058e-09 0.794027 0.113849 0.519165 0.316501 0.316508C0.519153 0.113851 0.794009 0 1.0806 0C1.3672 0 1.64205 0.113851 1.8447 0.316508C2.04736 0.519165 2.16121 0.794027 2.16121 1.08063C2.16121 1.67729 1.67705 2.1715 1.0806 2.1715ZM8.99799 9H7.13612V6.07493C7.13612 5.37782 7.12205 4.48383 6.166 4.48383C5.19589 4.48383 5.04723 5.24121 5.04723 6.02471V9H3.18335V2.99116H4.9729V3.81082H4.99902C5.24813 3.33871 5.85663 2.84049 6.76446 2.84049C8.65286 2.84049 9 4.08404 9 5.69926V9H8.99799Z" fill="white"/>
</svg>
