<svg version="1.2" xmlns="http://www.w3.org/2000/svg" viewBox="0 0 100 69" width="100" height="69">
	<title>menu-hamburger-svgrepo-com</title>
	<style>
		.s0 { fill: #000000 } 
	</style>
	<g id="style=stroke">
		<g id="menu-hamburger">
			<path id="vector (Stroke)" fill-rule="evenodd" class="s0" d="m0 3.8c0-2.1 1.7-3.8 3.8-3.8h92.4c2.1 0 3.8 1.7 3.8 3.8 0 2.2-1.7 3.9-3.8 3.9h-92.4c-2.1 0-3.8-1.7-3.8-3.9z"/>
			<path id="vector (Stroke)_2" fill-rule="evenodd" class="s0" d="m0 34.5c0-2.1 1.7-3.8 3.8-3.8h92.4c2.1 0 3.8 1.7 3.8 3.8 0 2.1-1.7 3.8-3.8 3.8h-92.4c-2.1 0-3.8-1.7-3.8-3.8z"/>
			<path id="vector (Stroke)_3" fill-rule="evenodd" class="s0" d="m0 65.2c0-2.2 1.7-3.9 3.8-3.9h92.4c2.1 0 3.8 1.7 3.8 3.9 0 2.1-1.7 3.8-3.8 3.8h-92.4c-2.1 0-3.8-1.7-3.8-3.8z"/>
		</g>
	</g>
</svg>