<svg width="36" height="28" viewBox="0 0 36 28" fill="none" xmlns="http://www.w3.org/2000/svg">
<path d="M1.2582 28C0.518398 28 0 27.4522 0 26.8397C0 26.4057 0.261002 25.9385 0.8946 25.6113C4.113 23.9523 7.839 18.2158 7.839 14.6772C2.4102 14.8383 0.0522003 10.1587 0.0522003 7.22575C0.0522003 3.7135 3.1806 0 7.8066 0C13.6386 0 16.5006 4.45725 16.5006 9.28725C16.5006 19.7523 4.1994 28 1.2582 28ZM20.7576 28C20.0196 28 19.4994 27.4522 19.4994 26.8397C19.4994 26.4057 19.7604 25.9385 20.394 25.6113C23.6124 23.9523 27.3384 18.2158 27.3384 14.6772C21.9096 14.8383 19.5516 10.1587 19.5516 7.22575C19.5516 3.7135 22.6818 0 27.306 0C33.1398 0 36 4.45725 36 9.28725C36 19.7523 23.7006 28 20.7576 28Z" fill="#C8ACA8"/>
</svg>
