<svg width="31" height="31" viewBox="0 0 31 31" fill="none" xmlns="http://www.w3.org/2000/svg">
<path d="M0 4.42857V1.10714C0 0.81351 0.116645 0.531904 0.324275 0.324275C0.531904 0.116645 0.81351 0 1.10714 0H4.42857C4.7222 0 5.00381 0.116645 5.21144 0.324275C5.41907 0.531904 5.53571 0.81351 5.53571 1.10714C5.53571 1.40078 5.41907 1.68238 5.21144 1.89001C5.00381 2.09764 4.7222 2.21429 4.42857 2.21429H2.21429V4.42857C2.21429 4.7222 2.09764 5.00381 1.89001 5.21144C1.68238 5.41907 1.40078 5.53571 1.10714 5.53571C0.81351 5.53571 0.531904 5.41907 0.324275 5.21144C0.116645 5.00381 0 4.7222 0 4.42857ZM29.8929 0H26.5714C26.2778 0 25.9962 0.116645 25.7886 0.324275C25.5809 0.531904 25.4643 0.81351 25.4643 1.10714C25.4643 1.40078 25.5809 1.68238 25.7886 1.89001C25.9962 2.09764 26.2778 2.21429 26.5714 2.21429H28.7857V4.42857C28.7857 4.7222 28.9024 5.00381 29.11 5.21144C29.3176 5.41907 29.5992 5.53571 29.8929 5.53571C30.1865 5.53571 30.4681 5.41907 30.6757 5.21144C30.8834 5.00381 31 4.7222 31 4.42857V1.10714C31 0.81351 30.8834 0.531904 30.6757 0.324275C30.4681 0.116645 30.1865 0 29.8929 0ZM4.42857 28.7857H2.21429V26.5714C2.21429 26.2778 2.09764 25.9962 1.89001 25.7886C1.68238 25.5809 1.40078 25.4643 1.10714 25.4643C0.81351 25.4643 0.531904 25.5809 0.324275 25.7886C0.116645 25.9962 0 26.2778 0 26.5714V29.8929C0 30.1865 0.116645 30.4681 0.324275 30.6757C0.531904 30.8834 0.81351 31 1.10714 31H4.42857C4.7222 31 5.00381 30.8834 5.21144 30.6757C5.41907 30.4681 5.53571 30.1865 5.53571 29.8929C5.53571 29.5992 5.41907 29.3176 5.21144 29.11C5.00381 28.9024 4.7222 28.7857 4.42857 28.7857ZM29.8929 25.4643C29.5992 25.4643 29.3176 25.5809 29.11 25.7886C28.9024 25.9962 28.7857 26.2778 28.7857 26.5714V28.7857H26.5714C26.2778 28.7857 25.9962 28.9024 25.7886 29.11C25.5809 29.3176 25.4643 29.5992 25.4643 29.8929C25.4643 30.1865 25.5809 30.4681 25.7886 30.6757C25.9962 30.8834 26.2778 31 26.5714 31H29.8929C30.1865 31 30.4681 30.8834 30.6757 30.6757C30.8834 30.4681 31 30.1865 31 29.8929V26.5714C31 26.2778 30.8834 25.9962 30.6757 25.7886C30.4681 25.5809 30.1865 25.4643 29.8929 25.4643ZM31 15.5C31 15.7936 30.8834 16.0752 30.6757 16.2829C30.4681 16.4905 30.1865 16.6071 29.8929 16.6071H28.7292C28.4642 19.7333 27.102 22.665 24.8835 24.8835C22.665 27.102 19.7333 28.4642 16.6071 28.7292V29.8929C16.6071 30.1865 16.4905 30.4681 16.2829 30.6757C16.0752 30.8834 15.7936 31 15.5 31C15.2064 31 14.9248 30.8834 14.7171 30.6757C14.5095 30.4681 14.3929 30.1865 14.3929 29.8929V28.7292C11.2667 28.4642 8.33497 27.102 6.11649 24.8835C3.89801 22.665 2.53575 19.7333 2.27075 16.6071H1.10714C0.81351 16.6071 0.531904 16.4905 0.324275 16.2829C0.116645 16.0752 0 15.7936 0 15.5C0 15.2064 0.116645 14.9248 0.324275 14.7171C0.531904 14.5095 0.81351 14.3929 1.10714 14.3929H2.27075C2.53575 11.2667 3.89801 8.33497 6.11649 6.11649C8.33497 3.89801 11.2667 2.53575 14.3929 2.27075V1.10714C14.3929 0.81351 14.5095 0.531904 14.7171 0.324275C14.9248 0.116645 15.2064 0 15.5 0C15.7936 0 16.0752 0.116645 16.2829 0.324275C16.4905 0.531904 16.6071 0.81351 16.6071 1.10714V2.27075C19.7333 2.53575 22.665 3.89801 24.8835 6.11649C27.102 8.33497 28.4642 11.2667 28.7292 14.3929H29.8929C30.1865 14.3929 30.4681 14.5095 30.6757 14.7171C30.8834 14.9248 31 15.2064 31 15.5ZM16.6071 4.48504V10.075C17.67 10.2941 18.6454 10.8198 19.4128 11.5872C20.1802 12.3546 20.7059 13.33 20.925 14.3929H26.5161C26.2574 11.8531 25.1303 9.48036 23.3251 7.67529C21.5198 5.87021 19.1469 4.74338 16.6071 4.48504ZM18.8214 15.5C18.8214 14.8431 18.6266 14.2009 18.2617 13.6547C17.8967 13.1085 17.378 12.6828 16.7711 12.4314C16.1641 12.18 15.4963 12.1142 14.852 12.2424C14.2077 12.3705 13.6159 12.6869 13.1514 13.1514C12.6869 13.6159 12.3705 14.2077 12.2424 14.852C12.1142 15.4963 12.18 16.1641 12.4314 16.7711C12.6828 17.378 13.1085 17.8967 13.6547 18.2617C14.2009 18.6266 14.8431 18.8214 15.5 18.8214C16.3809 18.8214 17.2257 18.4715 17.8486 17.8486C18.4715 17.2257 18.8214 16.3809 18.8214 15.5ZM4.48504 14.3929H10.075C10.2941 13.33 10.8198 12.3546 11.5872 11.5872C12.3546 10.8198 13.33 10.2941 14.3929 10.075V4.48504C11.8533 4.74362 9.48066 5.87056 7.67561 7.67561C5.87056 9.48066 4.74362 11.8533 4.48504 14.3929ZM14.3929 26.515V20.925C13.33 20.7059 12.3546 20.1802 11.5872 19.4128C10.8198 18.6454 10.2941 17.67 10.075 16.6071H4.48504C4.74362 19.1467 5.87056 21.5193 7.67561 23.3244C9.48066 25.1294 11.8533 26.2564 14.3929 26.515ZM26.515 16.6071H20.925C20.7059 17.67 20.1802 18.6454 19.4128 19.4128C18.6454 20.1802 17.67 20.7059 16.6071 20.925V26.5161C19.1469 26.2574 21.5196 25.1303 23.3247 23.3251C25.1298 21.5198 26.2566 19.1469 26.515 16.6071Z" fill="#303656"/>
</svg>
